<mxfile host="65bd71144e">
    <diagram id="juFbRDx7sVsMqzYUs_ys" name="Page-1">
        <mxGraphModel dx="411" dy="913" grid="1" gridSize="11" guides="1" tooltips="1" connect="1" arrows="1" fold="1" page="0" pageScale="1" pageWidth="850" pageHeight="1100" background="none" math="0" shadow="0">
            <root>
                <mxCell id="0"/>
                <mxCell id="1" parent="0"/>
                <mxCell id="2" value="Student" style="swimlane;fontSize=18;" parent="1" vertex="1">
                    <mxGeometry x="33" y="-121" width="440" height="550" as="geometry"/>
                </mxCell>
                <mxCell id="3" value="- fname: string&amp;nbsp;" style="text;html=1;align=center;verticalAlign=middle;resizable=0;points=[];autosize=1;strokeColor=none;fillColor=none;fontStyle=0;fontSize=16;labelPosition=center;verticalLabelPosition=middle;" parent="2" vertex="1">
                    <mxGeometry y="30" width="130" height="30" as="geometry"/>
                </mxCell>
                <mxCell id="5" value="- lname: string" style="text;html=1;align=center;verticalAlign=middle;resizable=0;points=[];autosize=1;strokeColor=none;fillColor=none;fontSize=16;" parent="2" vertex="1">
                    <mxGeometry y="59" width="121" height="33" as="geometry"/>
                </mxCell>
                <mxCell id="6" value="- dob*: Date" style="text;html=1;align=center;verticalAlign=middle;resizable=0;points=[];autosize=1;strokeColor=none;fillColor=none;fontSize=16;" parent="2" vertex="1">
                    <mxGeometry y="92" width="110" height="33" as="geometry"/>
                </mxCell>
                <mxCell id="7" value="&lt;font style=&quot;font-size: 16px;&quot;&gt;- comp_date*: Date&lt;/font&gt;" style="text;html=1;align=center;verticalAlign=middle;resizable=0;points=[];autosize=1;strokeColor=none;fillColor=none;" vertex="1" parent="2">
                    <mxGeometry y="125" width="165" height="33" as="geometry"/>
                </mxCell>
                <mxCell id="8" value="- gpa: float" style="text;html=1;align=center;verticalAlign=middle;resizable=0;points=[];autosize=1;strokeColor=none;fillColor=none;fontSize=16;" vertex="1" parent="2">
                    <mxGeometry x="5.5" y="158" width="99" height="33" as="geometry"/>
                </mxCell>
                <mxCell id="10" value="- credits: int" style="text;html=1;align=center;verticalAlign=middle;resizable=0;points=[];autosize=1;strokeColor=none;fillColor=none;fontSize=16;" vertex="1" parent="2">
                    <mxGeometry x="5.5" y="191" width="110" height="33" as="geometry"/>
                </mxCell>
                <mxCell id="11" value="- address*: Address" style="text;html=1;align=center;verticalAlign=middle;resizable=0;points=[];autosize=1;strokeColor=none;fillColor=none;fontSize=16;" vertex="1" parent="2">
                    <mxGeometry y="224" width="165" height="33" as="geometry"/>
                </mxCell>
                <mxCell id="14" value="" style="endArrow=none;html=1;fontSize=16;" edge="1" parent="2">
                    <mxGeometry width="50" height="50" relative="1" as="geometry">
                        <mxPoint y="264" as="sourcePoint"/>
                        <mxPoint x="440" y="264" as="targetPoint"/>
                        <Array as="points">
                            <mxPoint x="209" y="264"/>
                        </Array>
                    </mxGeometry>
                </mxCell>
                <mxCell id="15" value="+ Student(string, string, Date*, Date*, float, int, Address*)&amp;nbsp;" style="text;html=1;align=center;verticalAlign=middle;resizable=0;points=[];autosize=1;strokeColor=none;fillColor=none;fontSize=16;" vertex="1" parent="2">
                    <mxGeometry y="308" width="429" height="33" as="geometry"/>
                </mxCell>
                <mxCell id="17" value="+ Student()" style="text;html=1;align=center;verticalAlign=middle;resizable=0;points=[];autosize=1;strokeColor=none;fillColor=none;fontSize=16;" vertex="1" parent="2">
                    <mxGeometry y="275" width="110" height="33" as="geometry"/>
                </mxCell>
                <mxCell id="18" value="+~ Student()" style="text;html=1;align=center;verticalAlign=middle;resizable=0;points=[];autosize=1;strokeColor=none;fillColor=none;fontSize=16;" vertex="1" parent="2">
                    <mxGeometry y="341" width="110" height="33" as="geometry"/>
                </mxCell>
                <mxCell id="19" value="+ setName (string, string)" style="text;html=1;align=center;verticalAlign=middle;resizable=0;points=[];autosize=1;strokeColor=none;fillColor=none;fontSize=16;" vertex="1" parent="2">
                    <mxGeometry x="-5" y="374" width="209" height="33" as="geometry"/>
                </mxCell>
                <mxCell id="20" value="Text" style="text;html=1;align=center;verticalAlign=middle;resizable=0;points=[];autosize=1;strokeColor=none;fillColor=none;fontSize=16;" vertex="1" parent="2">
                    <mxGeometry x="11" y="407" width="55" height="33" as="geometry"/>
                </mxCell>
            </root>
        </mxGraphModel>
    </diagram>
</mxfile>